<svg width="31" height="32" viewBox="0 0 31 32" fill="none" xmlns="http://www.w3.org/2000/svg">
<path d="M23.2371 10.836C18.9303 10.5298 16.4174 11.9322 15.0863 13.114C13.7479 11.918 11.2137 10.5227 6.86415 10.8431C6.76448 10.8502 6.66481 10.8573 6.57227 10.8573L6.8885 8.37172C6.91297 8.17939 7.04147 8.0122 7.22149 7.94021C12.3993 5.86948 17.5244 5.83138 22.5965 7.96602C22.7718 8.03982 22.8963 8.20468 22.9207 8.39335L23.2371 10.836Z" fill="#38bdf8"/>
<path d="M28.4193 17.2715C26.9243 15.2926 24.5467 14.0113 21.8772 14.0113C19.0581 14.0113 16.5666 15.4421 15.086 17.6062C13.6053 15.4421 11.1137 14.0113 8.29478 14.0113C5.62527 14.0113 3.24757 15.2926 1.74563 17.2715C-0.58932 14.7445 -0.0625447 11.7617 0.400098 10.3379C0.492734 10.0461 0.877078 10.0105 1.03376 10.274C1.52491 11.1068 2.7778 12.3027 5.9242 12.3098C6.25163 12.3098 6.60044 12.2956 6.97063 12.2672C13.2921 11.7902 15.086 15.2926 15.086 15.2926C15.086 15.2926 16.8799 11.7902 23.2013 12.2672C23.5714 12.2956 23.9202 12.3098 24.2406 12.3098C27.387 12.3027 28.6399 11.1068 29.1312 10.274C29.2878 10.0105 29.6722 10.0461 29.7647 10.3379C30.2274 11.7617 30.7613 14.7516 28.4193 17.2715Z" fill="#38bdf8"/>
<path d="M17.1715 28.9536C16.9437 29.7508 16.4312 30.6762 15.3136 31.4308C15.1783 31.5233 14.9932 31.5233 14.858 31.4308C13.7403 30.6762 13.2278 29.7508 13 28.9536C13.8115 28.384 14.5234 27.665 15.0858 26.8464C15.6481 27.665 16.36 28.384 17.1715 28.9536Z" fill="#38bdf8"/>
<path d="M21.8773 15.4345C18.1258 15.4345 15.0862 18.4741 15.0862 22.2257C15.0862 25.9772 18.1258 29.0168 21.8773 29.0168C25.6289 29.0168 28.6685 25.9772 28.6685 22.2257C28.6685 18.4741 25.6289 15.4345 21.8773 15.4345ZM21.8773 26.7674C19.3716 26.7674 17.3356 24.7315 17.3356 22.2257C17.3356 19.7199 19.3716 17.684 21.8773 17.684C24.376 17.684 26.4191 19.7199 26.4191 22.2257C26.4191 24.7315 24.376 26.7674 21.8773 26.7674Z" fill="#38bdf8"/>
<path d="M29.1029 6.02405L27.2591 6.63625V9.19904C27.2591 9.59765 26.9388 9.91091 26.5472 9.91091C26.1557 9.91091 25.8353 9.59765 25.8353 9.19904V7.10611L24.1697 7.6613C23.9775 7.21291 23.6073 6.84272 23.1516 6.65051C20.4679 5.5257 17.713 4.94913 14.9581 4.94913C12.2388 4.94913 9.45525 5.51153 6.69328 6.622C6.24471 6.79997 5.88877 7.13453 5.67527 7.55459L1.06238 6.02406C0.59965 5.8746 0.59965 5.18402 1.06238 5.03455L14.417 0.606754C14.8513 0.464416 15.314 0.464416 15.7482 0.606754L29.1029 5.03455C29.5655 5.18401 29.5655 5.87458 29.1029 6.02405Z" fill="#38bdf8"/>
<path d="M21.8773 19.1085C20.1545 19.1085 18.7593 20.5038 18.7593 22.2265C18.7593 23.9421 20.1545 25.3445 21.8773 25.3445C23.5929 25.3445 24.9952 23.9421 24.9952 22.2265C24.9952 20.5038 23.5929 19.1085 21.8773 19.1085ZM20.9669 22.2311C20.5648 22.2311 20.2375 21.9039 20.2375 21.5018C20.2375 21.4836 20.2382 21.4655 20.2395 21.4478C20.2672 21.0708 20.5829 20.7724 20.9669 20.7724C21.369 20.7724 21.6963 21.0997 21.6963 21.5018C21.6963 21.8972 21.3623 22.2311 20.9669 22.2311Z" fill="#38bdf8"/>
<path d="M8.29563 19.1085C6.57297 19.1085 5.17773 20.5037 5.17773 22.2264C5.17773 23.9421 6.57297 25.3444 8.29563 25.3444C10.0113 25.3444 11.4137 23.9421 11.4137 22.2264C11.4137 20.5037 10.0113 19.1085 8.29563 19.1085ZM7.38529 22.2311C6.98321 22.2311 6.65595 21.9038 6.65595 21.5017C6.65595 21.4836 6.65655 21.4655 6.65795 21.4478C6.68567 21.0707 7.00137 20.7724 7.38529 20.7724C7.78745 20.7724 8.11471 21.0996 8.11471 21.5017C8.11471 21.8972 7.78076 22.2311 7.38529 22.2311Z" fill="#38bdf8"/>
<path d="M8.2958 15.4345C4.54424 15.4345 1.50464 18.4741 1.50464 22.2257C1.50464 25.9772 4.54424 29.0168 8.2958 29.0168C12.0474 29.0168 15.087 25.9772 15.087 22.2257C15.087 18.4741 12.0474 15.4345 8.2958 15.4345ZM8.2958 26.7674C5.79001 26.7674 3.75409 24.7315 3.75409 22.2257C3.75409 19.7199 5.79002 17.684 8.2958 17.684C10.7945 17.684 12.8375 19.7199 12.8375 22.2257C12.8375 24.7315 10.7945 26.7674 8.2958 26.7674Z" fill="#38bdf8"/>
</svg>
